<svg xmlns="http://www.w3.org/2000/svg" width="222.5" height="160" viewBox="0 0 222.5 160">
  <title>ParamMinorIcon</title>
  <g>
    <polygon points="40 20 40 0 20 0 0 0 0 20 0 140 0 160 20 160 40 160 40 140 20 140 20 20 40 20"/>
    <polygon points="182.5 140 182.5 160 202.5 160 222.5 160 222.5 140 222.5 20 222.5 0 202.5 0 182.5 0 182.5 20 202.5 20 202.5 140 182.5 140"/>
    <path d="M151.89,61.34a123.85,123.85,0,0,1,24.22,50.85c2.8-17.67-2.23-40.21-16.29-58.82l3.26-3.27-2.93-2.94,2.93-2.95-8.8-8.84-2.93,2.94-2.94-2.94-3.07,3.08C127.69,24.3,106,18.71,88.63,20.25a116.08,116.08,0,0,1,48.86,26.09l-3.75,3.76,2.93,2.95L58.92,131.16,67.73,140l77.75-78.11,2.93,3Z"/>
  </g>
</svg>
